<svg width="640" height="420" viewBox="0 0 640 420" fill="none" xmlns="http://www.w3.org/2000/svg">
  <rect width="640" height="420" fill="#F5F7FB"/>
  <g stroke="#171B63" stroke-width="10" stroke-linecap="round" stroke-linejoin="round">
    <path d="M120 195V325"/>
    <path d="M520 195V325"/>
    <path d="M120 205L320 85L520 205"/>
    <path d="M120 328H520"/>
    <path d="M140 325V336H500V325"/>
    <path d="M158 186L120 205V168L194 134"/>
    <path d="M482 186L520 205V168L446 134"/>
    <path d="M320 240V325"/>
    <path d="M290 325V250C290 238 300 228 312 228H328C340 228 350 238 350 250V325"/>
    <path d="M304 214V194"/>
    <path d="M336 214V194"/>
  </g>
  <circle cx="320" cy="90" r="52" fill="#F5F7FB" stroke="#171B63" stroke-width="10"/>
  <path d="M333 57L295 95H322L306 123L345 86H318L333 57Z" fill="#171B63"/>
  <text x="82" y="398" fill="#2B2B69" font-family="Georgia, 'Times New Roman', serif" font-size="78" letter-spacing="2">Elektro Maks</text>
</svg>
